<?xml version="1.0" standalone="no"?><svg xmlns="http://www.w3.org/2000/svg" viewBox="0 0 1440 320"><path fill="#a25ac8" fill-opacity="1" d="M0,128L34.3,133.3C68.6,139,137,149,206,154.7C274.3,160,343,160,411,133.3C480,107,549,53,617,74.7C685.7,96,754,192,823,192C891.4,192,960,96,1029,58.7C1097.1,21,1166,43,1234,58.7C1302.9,75,1371,85,1406,90.7L1440,96L1440,0L1405.7,0C1371.4,0,1303,0,1234,0C1165.7,0,1097,0,1029,0C960,0,891,0,823,0C754.3,0,686,0,617,0C548.6,0,480,0,411,0C342.9,0,274,0,206,0C137.1,0,69,0,34,0L0,0Z"></path></svg>