<?xml version="1.0" encoding="UTF-8"?>
<!DOCTYPE svg PUBLIC "-//W3C//DTD SVG 1.1//EN" "http://www.w3.org/Graphics/SVG/1.1/DTD/svg11.dtd">
<!-- Creator: CorelDRAW X7 -->
<svg xmlns="http://www.w3.org/2000/svg" xml:space="preserve" width="297mm" height="158mm" version="1.1" style="shape-rendering:geometricPrecision; text-rendering:geometricPrecision; image-rendering:optimizeQuality; fill-rule:evenodd; clip-rule:evenodd"
viewBox="0 0 29700 15800"
 xmlns:xlink="http://www.w3.org/1999/xlink">
 <defs>
  <style type="text/css">
   <![CDATA[
    .str1 {stroke:#373435;stroke-width:150}
    .str0 {stroke:#373435;stroke-width:7.62}
    .fil1 {fill:none}
    .fil0 {fill:#373435}
   ]]>
  </style>
 </defs>
 <g id="Capa_x0020_1">
  <metadata id="CorelCorpID_0Corel-Layer"/>
  <path class="fil0 str0" d="M5551 2581c-2504,562 -4790,2997 -4032,6261 570,2458 3053,4672 6227,3946 2440,-558 4684,-3021 3970,-6209 -558,-2487 -3010,-4705 -6165,-3998zm3013 2472c-675,333 -2473,-1411 -2922,-1974 -1332,200 -1972,887 -2681,1623 330,893 1902,2355 2785,2905 1237,770 3608,646 3929,1742 -784,-107 31,-448 -1982,-769 -1766,-282 -2603,-1089 -3645,-2081 -794,-755 -658,-764 -1319,-1521 -2140,3326 734,4723 677,5229 -398,115 -1101,-998 -1383,-1518 183,1464 1788,3305 3170,3440 -321,-99 -370,-152 -385,-499 1433,528 1179,1095 3879,312 -440,-256 -1234,-290 -1771,-473 -1305,-445 -3606,-2033 -3497,-3104 493,290 1278,2349 4254,3044 1600,373 1838,160 2578,-784 626,-798 979,-1540 1038,-2822 -1150,-23 -2280,-289 -3252,-729 -730,-330 -2117,-1044 -2265,-1625 387,5 2821,2346 5536,2050 -228,-2703 -2289,-4836 -5302,-4502 516,1049 2163,1683 2558,2056z"/>
  <path class="fil0 str0" d="M16142 5428c0,646 -159,1149 -479,1507 -319,360 -745,539 -1278,539 -248,0 -453,-29 -613,-88l0 -854c146,98 331,148 560,148 604,0 905,-467 905,-1399l0 -3355 905 0 0 3502zm5495 -252c0,1532 -726,2298 -2176,2298 -1390,0 -2085,-736 -2085,-2210l0 -3338 905 0 0 3148c0,1071 416,1606 1249,1606 801,0 1202,-516 1202,-1548l0 -3206 905 0 0 3250zm2185 226l0 1979 -901 0 0 -5455 1654 0c626,0 1112,146 1457,438 346,291 519,701 519,1231 0,530 -181,964 -542,1301 -360,337 -847,506 -1461,506l-726 0zm0 -2728l0 1987 586 0c388,0 683,-89 887,-268 202,-181 304,-433 304,-759 0,-640 -373,-960 -1119,-960l-658 0zm4581 4707l-932 0 0 -5455 932 0 0 5455z"/>
  <path class="fil0 str0" d="M16916 9966l-1317 0 0 4075 -533 0 0 -4075 -1313 0 0 -482 3163 0 0 482zm3131 4075l-2415 0 0 -4557 2314 0 0 482 -1780 0 0 1517 1647 0 0 481 -1647 0 0 1596 1881 0 0 481zm3981 -191c-337,179 -757,269 -1259,269 -649,0 -1168,-208 -1557,-626 -391,-417 -586,-967 -586,-1645 0,-729 220,-1318 658,-1768 439,-450 995,-674 1669,-674 432,0 790,62 1075,186l0 569c-327,-182 -687,-274 -1081,-274 -523,0 -948,175 -1273,526 -326,349 -488,817 -488,1402 0,555 152,998 455,1328 305,330 704,495 1198,495 457,0 854,-102 1189,-306l0 518zm4355 191l-534 0 0 -2077 -2359 0 0 2077 -534 0 0 -4557 534 0 0 1999 2359 0 0 -1999 534 0 0 4557z"/>
  <line class="fil1 str1" x1="12779" y1="1539" x2="12632" y2= "15004" />
  <path class="fil0" d="M7125 9635c-587,293 -194,743 203,1006 339,225 1067,447 1512,241 989,-459 -730,-1738 -1715,-1247z"/>
 </g>
</svg>
