<?xml version="1.0" standalone="no"?><svg xmlns="http://www.w3.org/2000/svg" viewBox="0 0 1440 320"><path fill="#a25ac8" fill-opacity="1" d="M0,256L34.3,224C68.6,192,137,128,206,106.7C274.3,85,343,107,411,101.3C480,96,549,64,617,48C685.7,32,754,32,823,53.3C891.4,75,960,117,1029,122.7C1097.1,128,1166,96,1234,80C1302.9,64,1371,64,1406,64L1440,64L1440,0L1405.7,0C1371.4,0,1303,0,1234,0C1165.7,0,1097,0,1029,0C960,0,891,0,823,0C754.3,0,686,0,617,0C548.6,0,480,0,411,0C342.9,0,274,0,206,0C137.1,0,69,0,34,0L0,0Z"></path></svg>